<?xml version="1.0" encoding="UTF-8"?>
<!-- Generator: Adobe Illustrator 19.0.0, SVG Export Plug-In . SVG Version: 6.00 Build 0)  -->
<svg version="1.1" id="Calque_1" xmlns="http://www.w3.org/2000/svg" xmlns:xlink="http://www.w3.org/1999/xlink" x="0px" y="0px" viewBox="327.3 81.1 476.2 121" style="enable-background:new 327.3 81.1 476.2 121;" xml:space="preserve">
<style type="text/css">
	.st0{fill:#CD2927;}
	.st1{fill:#646363;}
	.st2{fill:url(#SVGID_1_);}
	.st3{fill:url(#SVGID_2_);}
	.st4{fill:#FFFFFF;}
	.st5{fill:#878787;}
</style>
<g>
	<path class="st0" d="M690,129.6l17.9-27h-23.3l-6.4,11.3l-6.3-11.3h-36.8l-6.4,11.3l-6.3-11.3h-24l17.9,27l-19.9,30h23.9l8-14   l8.4,14h33.1l8-14l8.4,14h24L690,129.6z M653.3,148.6l-12.8-19l12.7-19.2l12.7,19.2L653.3,148.6z"/>
	<path class="st0" d="M356.3,81.1h23.6l28.6,78.5h-25.1l-3.3-11.2h-25l-3.5,11.2h-24.3L356.3,81.1z M375.3,131.5l-7-24.2h-0.2   l-7.6,24.2H375.3z"/>
	<path class="st0" d="M411,102.5h21v7.3h0.2c4.1-5.7,9.9-8.7,18.6-8.7c10.2,0,19.6,6.3,19.6,19.3v39.1h-21.8v-29.9   c0-6.6-0.8-11.2-7.1-11.2c-3.7,0-8.7,1.9-8.7,11v30.1H411L411,102.5z"/>
	<path class="st0" d="M476.4,102.5h21v7.3h0.2c4.1-5.7,9.9-8.7,18.6-8.7c10.2,0,19.6,6.3,19.6,19.3v39.1H514v-29.9   c0-6.6-0.8-11.2-7.1-11.2c-3.7,0-8.7,1.9-8.7,11v30.1h-21.8L476.4,102.5z"/>
	<path class="st0" d="M560.8,136c0.5,6.5,4.3,11.1,11.1,11.1c3.5,0,7.4-1.3,9.1-4.1h20.3c-4.4,12.3-16.4,18-29.4,18   c-18.2,0-32-10.8-32-29.8c0-16.6,12.1-30.1,30.1-30.1c22.6,0,32.4,12.6,32.4,34.9L560.8,136z M581.7,124.6c0-5.3-4-9.6-9.6-9.6   c-6.5,0-10.2,3.4-11.2,9.6H581.7z"/>
</g>
<g>
	<path class="st1" d="M419.1,201c-3.8,0-4.7-1.7-4.7-4.4v-8c0-2.8-0.9-3.8-3-3.8c-2,0-2.7,1.5-2.7,3.7v12.4h-2.5   c-2.9,0-4.5-1-4.5-4.4v-8.2c0-2.6-0.9-3.6-2.8-3.6c-2,0-2.8,1.1-2.8,3.7v12.4h-2.5c-3.2,0-4.7-1.6-4.7-4.4v-7.6   c0-6.3,3.5-10.3,10.1-10.3c3.2,0,5.7,2.1,6.4,3.8c1-1.6,3.5-3.8,6.5-3.8c6,0,9.6,3.7,9.6,10.5v11.7h-2.4V201z"/>
	<path class="st1" d="M435.5,178.8c5.7,0,10.8,4.5,10.8,11.1c0,7.1-4.1,11.6-11.3,11.6c-5.9,0-10.8-4.6-10.8-10.9   C424.3,183.5,429,178.8,435.5,178.8z M435.1,184.7c-2,0-3.7,2.2-3.7,5.1c0,4.2,1.6,6,4.1,6c2.3,0,3.7-2.2,3.7-5.1   C439.2,186.8,437.6,184.7,435.1,184.7z"/>
	<path class="st1" d="M466.9,201c-3.2,0-4.2-1.1-4.2-4.4V189c0-2.9-0.9-4.2-3.4-4.2c-2.1,0-3.2,1.5-3.2,4.1V201h-2.4   c-3.1,0-4.8-1.3-4.8-4.4V189c0-6.2,4-10.2,10.6-10.2c7.4,0,10.3,4,10.3,10.4V201H466.9z"/>
	<path class="st1" d="M491.7,201.6c-7.1,0-10.6-4-10.6-10.4V172h1.7c4,0,5.2,1.2,5.2,4.7v5.1c1.2-1.6,2.5-2.9,5.3-2.9   c5.7,0,9.7,4.1,9.7,11.1C503.1,197.1,498.3,201.6,491.7,201.6z M492,184.6c-2.3,0-3.9,2.1-3.9,5.7c0,4.2,1.6,5.7,4,5.7   c2.3,0,3.8-1.9,3.8-5.3C495.9,186.3,494.5,184.6,492,184.6z"/>
	<path class="st1" d="M516.6,178.8c5.7,0,10.8,4.5,10.8,11.1c0,7.1-4.1,11.6-11.3,11.6c-5.9,0-10.8-4.6-10.8-10.9   C505.3,183.5,510.1,178.8,516.6,178.8z M516.2,184.7c-2,0-3.7,2.2-3.7,5.1c0,4.2,1.6,6,4.1,6c2.3,0,3.7-2.2,3.7-5.1   C520.3,186.8,518.7,184.7,516.2,184.7z"/>
	<path class="st1" d="M539.8,197c-0.6-0.8-1.1-1.7-1.7-2.5c-1.9,2.2-2.9,3.8-3.2,6.5H532c-1.5,0-2.8-1.1-2.8-2.6c0-2.4,1-4.5,4-7.7   l1.3-1.3c-1.5-2.1-3.1-4.1-4.4-6.4c-0.6-1.1-1-2-1.1-3.7h3.8c1,0,2,0.4,3.1,1.4c0.5,0.5,1.2,1.5,1.9,2.5c0.6,0.9,1.2,1.8,1.5,2.3   c2.6-2.9,3.4-4.6,3.6-6.2h2.5c1.8,0,2.9,1.2,2.9,2.7c0,1.2-0.6,2.8-2.2,4.7c-0.8,1.1-2,2.3-3.1,3.6l1.8,2.7c2.3,3.3,3,3.8,5.1,4.4   c0,2.3-1.6,3.6-4.1,3.6C542.9,201.2,541.3,199.3,539.8,197z"/>
	<path class="st1" d="M567.1,201.6c-5.7,0-7.7-2.2-7.7-5.3v-2.2h0.2c1.4,1.1,3.4,1.9,6.4,1.9c2.6,0,3.4-0.6,3.4-1.7   c0-1-0.5-1.4-4.8-2c-3.7-0.5-5.7-2.3-5.7-5.8c0-5.2,4.7-7.8,9.5-7.8c4.6,0,7.4,1.9,7.4,5.1v2.2h-0.2c-1.4-1.1-3.6-1.8-6.4-1.8   c-2.7,0-3.5,0.7-3.5,1.6c0,0.8,0.5,1.1,4.8,1.8c3.5,0.6,5.8,2.6,5.8,6.2C576.3,198.7,572.8,201.6,567.1,201.6z"/>
	<path class="st1" d="M588.7,192.9h-3.1c0.4,2.2,2.1,3.2,5.1,3.2c3.3,0,5.4-0.5,6.6-1.4h0.3v1.7c0,2.7-2.2,5.2-8.1,5.2   c-7.2,0-10.9-5-10.9-11c0-6.6,4.3-11.9,10.7-11.9c5.4,0,9.7,3.2,9.7,8.7C598.9,191.7,595.7,192.9,588.7,192.9z M589.2,184.3   c-2.5,0-3.6,1.7-3.8,3.8h2.8c3.4,0,4-0.5,4-1.5C592.2,185.5,591.3,184.3,589.2,184.3z M588.5,171.7c1.2-1.3,2.7-2.1,4.4-2.1   c1.5,0,2.4,1,2.4,2.3c0,1.6-1.1,3-2.3,3.5c-1.4,0.6-3.3,0.9-5.7,0.9h-1.7v-0.2C586.2,174.5,587.3,172.9,588.5,171.7z"/>
	<path class="st1" d="M618.2,186.5c-0.6-0.7-2.6-1.5-4.6-1.5c-3.5,0-5.5,1.8-5.5,4.9c0,3.7,2,5.4,5.1,5.4c2.2,0,3.8-0.5,5-1.2h0.1   v2.2c0,2.9-2.8,5.2-6.6,5.2c-6.3,0-10.8-4.4-10.8-11.2c0-6.2,4.1-11.5,11.4-11.5c3.3,0,6,2.2,6,5v2.6h-0.1V186.5z"/>
	<path class="st1" d="M631,201.6c-6.7,0-10.4-3.4-10.4-10.3v-11.9h2.8c3.1,0,4.5,1.1,4.5,4.4v7.7c0,3.2,1.4,4.2,3.4,4.2   c1.7,0,3.1-1,3.1-4.4v-11.8h2.8c2.9,0,4.5,1.3,4.5,4.4v7.7C641.6,198.4,637.3,201.6,631,201.6z"/>
	<path class="st1" d="M657.5,185c-0.9-0.4-1.6-0.4-2.5-0.4c-1.7,0-3.1,0.9-3.1,3.5V201h-2c-3.1,0-5-1.5-5-5.1v-9.4   c0-4.4,2.8-7.8,7.5-7.8c3.6,0,5.2,1.5,5.2,3.5v2.7h-0.1V185z"/>
	<path class="st1" d="M662.9,178.2c-2.1,0-3.8-1.6-3.8-3.7c0-2,1.7-3.7,3.8-3.7c2.1,0,3.7,1.6,3.7,3.7S664.9,178.2,662.9,178.2z    M666.3,201.3c-3.8,0-6.8-2-6.8-7.1V180h1.8c4.1,0,5.4,1.2,5.4,5.1v7.9c0,1.9,0.9,2.5,2.9,2.5h0.9v2.2   C670.4,200.5,668.5,201.3,666.3,201.3z"/>
	<path class="st1" d="M679.7,201.6c-5.7,0-7.7-2.2-7.7-5.3v-2.2h0.2c1.4,1.1,3.4,1.9,6.4,1.9c2.6,0,3.4-0.6,3.4-1.7   c0-1-0.5-1.4-4.8-2c-3.7-0.5-5.7-2.3-5.7-5.8c0-5.2,4.7-7.8,9.5-7.8c4.6,0,7.4,1.9,7.4,5.1v2.2h-0.2c-1.4-1.1-3.6-1.8-6.4-1.8   c-2.7,0-3.5,0.7-3.5,1.6c0,0.8,0.5,1.1,4.8,1.8c3.5,0.6,5.8,2.6,5.8,6.2C688.9,198.7,685.4,201.6,679.7,201.6z"/>
	<path class="st1" d="M701.3,192.9h-3.1c0.4,2.2,2.1,3.2,5.1,3.2c3.3,0,5.4-0.5,6.6-1.4h0.3v1.7c0,2.7-2.2,5.2-8.1,5.2   c-7.2,0-10.9-5-10.9-11c0-6.6,4.3-11.9,10.7-11.9c5.4,0,9.7,3.2,9.7,8.7C711.5,191.7,708.3,192.9,701.3,192.9z M701.8,184.3   c-2.5,0-3.6,1.7-3.8,3.8h2.8c3.4,0,4-0.5,4-1.5C704.8,185.5,703.9,184.3,701.8,184.3z M701.1,171.7c1.2-1.3,2.7-2.1,4.4-2.1   c1.5,0,2.4,1,2.4,2.3c0,1.6-1.1,3-2.3,3.5c-1.4,0.6-3.3,0.9-5.7,0.9h-1.7v-0.2C698.8,174.5,699.9,172.9,701.1,171.7z"/>
</g>
<radialGradient id="SVGID_1_" cx="752.2711" cy="127.5295" r="54.8585" gradientTransform="matrix(0.9928 0.1201 0.1201 -0.9928 -5.273 208.5277)" gradientUnits="userSpaceOnUse">
	<stop offset="7.906980e-02" style="stop-color:#ED6A53"/>
	<stop offset="9.575611e-02" style="stop-color:#EB6751"/>
	<stop offset="0.3637" style="stop-color:#D64331"/>
	<stop offset="0.6123" style="stop-color:#C82B1F"/>
	<stop offset="0.832" style="stop-color:#BF1B16"/>
	<stop offset="1" style="stop-color:#BC1413"/>
</radialGradient>
<path class="st2" d="M803.2,135.5c-3,24.4-25.2,41.9-49.6,38.9c-24.4-3-41.9-25.2-38.9-49.6s25.2-41.9,49.6-38.9  C788.8,88.8,806.2,111,803.2,135.5z"/>
<linearGradient id="SVGID_2_" gradientUnits="userSpaceOnUse" x1="749.2725" y1="212.0117" x2="749.2725" y2="175.1656" gradientTransform="matrix(0.9928 0.1201 0.1201 -0.9928 -5.273 208.5277)">
	<stop offset="6.511630e-02" style="stop-color:#ED694B"/>
	<stop offset="1" style="stop-color:#9E1510"/>
</linearGradient>
<path class="st3" d="M791.9,110c-1,8.4-15.3,13.6-31.9,11.6c-16.6-2-29.2-10.4-28.2-18.8c1-8.4,15.5-15.6,32.1-13.6  C780.5,91.2,792.9,101.6,791.9,110z"/>
<g>
	<path class="st4" d="M763.7,113.3l-0.4-0.2l2.9-5c2.5-4.2,0.9-9.7-3.6-12.3c-0.7-0.4-1.4-0.7-2.1-0.9c-4.1-1.3-8.4,0.3-10.5,3.8   l-1.6,2.7l3.2,1.9l1.7-2.9c1.3-1.9,3.7-2.7,6.1-2c0.4,0.1,0.9,0.3,1.3,0.5c2.7,1.6,3.6,4.9,2.2,7.4l-3,5l-13.2-7.7   c-0.9-0.5-2-0.3-2.5,0.6l-9,15.2c-0.5,0.8-0.2,1.9,0.7,2.4l16.8,9.8c0.9,0.5,2,0.3,2.5-0.6l9-15.2   C764.9,114.9,764.6,113.8,763.7,113.3z M754.5,116.1c-0.5,0.9-1.5,1.4-2.5,1.4l-2.3,6.6l-5.2-3.1l4.7-5.2c-0.4-0.9-0.4-1.9,0.1-2.7   c0.8-1.4,2.6-1.8,4.1-1C754.8,112.9,755.3,114.7,754.5,116.1z"/>
	<path class="st4" d="M767.7,113.3l-6.9,21.1l21.2,7l6.9-21.1L767.7,113.3z M752.9,158.4l21.2,7l6.9-21.1l-21.2-7L752.9,158.4z    M728.6,150.5l21.2,7l6.9-21.1l-21.2-7L728.6,150.5z"/>
</g>
<ellipse class="st5" cx="759" cy="197.2" rx="30.7" ry="4.9"/>
</svg>